<svg width="229" height="56" viewBox="0 0 229 56" fill="none" xmlns="http://www.w3.org/2000/svg">
<path d="M85.2238 45.7629C92.5239 45.7629 97.6732 42.189 97.6732 34.1278V17.0249H91.2602V33.3889C91.2602 38.1315 88.7462 40.1065 85.2238 40.1065C81.7014 40.1065 79.1874 38.1584 79.1874 33.3889V17.0249H72.7343V34.1278C72.7343 42.189 77.9237 45.7629 85.2238 45.7629Z" fill="#101A42"/>
<path d="M114.855 24.2925C113.674 24.253 112.498 24.4815 111.418 24.9608C110.337 25.4402 109.38 26.1579 108.617 27.0602L107.958 24.8165H102.688V45.1171H108.657V34.1405C108.966 30.5936 110.821 29.3442 112.69 29.3442C115.231 29.3442 116.32 31.0907 116.32 34.0599V45.1171H122.289V32.3805C122.289 26.2407 118.256 24.3194 114.868 24.3194L114.855 24.2925Z" fill="#101A42"/>
<path d="M130.544 21.6326C131.193 21.6115 131.822 21.3999 132.351 21.0241C132.881 20.6483 133.288 20.1251 133.522 19.5196C133.756 18.9141 133.806 18.2533 133.667 17.6194C133.527 16.9855 133.204 16.4067 132.738 15.9552C132.271 15.5036 131.682 15.1994 131.043 15.0803C130.405 14.9613 129.745 15.0327 129.147 15.2857C128.549 15.5387 128.039 15.9621 127.68 16.503C127.321 17.0439 127.13 17.6785 127.129 18.3276C127.147 19.2172 127.516 20.0639 128.156 20.683C128.795 21.302 129.654 21.6434 130.544 21.6326Z" fill="#101A42"/>
<path d="M133.461 24.817H127.546V45.1309H133.461V24.817Z" fill="#101A42"/>
<path d="M153.789 17.0511H147.147L136.123 45.0635H142.845L144.969 39.2191H155.725L157.849 45.0635H164.759L153.789 17.0511ZM146.677 34.7049L150.535 23.5537L154.381 34.7049H146.677Z" fill="#F05D4E"/>
<path d="M176.845 45.7629C179.469 45.8311 182.042 45.0384 184.172 43.5061L180.865 39.0723C180.377 39.5714 179.794 39.9668 179.149 40.2346C178.504 40.5025 177.812 40.6372 177.114 40.6308C174.009 40.6308 172.005 38.3334 172.005 35.0283C172.005 31.7233 174.009 29.4259 177.114 29.4259C177.812 29.4194 178.504 29.5542 179.149 29.822C179.794 30.0898 180.377 30.4852 180.865 30.9843L184.199 26.5373C182.061 25.0031 179.476 24.2146 176.845 24.2937C175.464 24.236 174.084 24.4509 172.786 24.9261C171.488 25.4014 170.295 26.1276 169.278 27.0634C168.26 27.9991 167.437 29.126 166.856 30.3797C166.274 31.6334 165.945 32.9893 165.888 34.37V35.0149C165.831 37.8041 166.883 40.5022 168.813 42.5173C170.744 44.5321 173.396 45.6996 176.187 45.7629H176.845Z" fill="#F05D4E"/>
<path d="M196.783 45.7629C199.41 45.8274 201.987 45.035 204.124 43.5061L200.803 39.0723C200.316 39.5714 199.732 39.9668 199.087 40.2346C198.443 40.5025 197.75 40.6372 197.052 40.6308C193.946 40.6308 191.943 38.3334 191.943 35.0283C191.943 31.7233 193.946 29.4259 197.052 29.4259C197.75 29.4194 198.443 29.5542 199.087 29.822C199.732 30.0899 200.316 30.4852 200.803 30.9843L204.15 26.5373C202.005 25.0074 199.418 24.2196 196.783 24.2936C195.403 24.236 194.024 24.451 192.726 24.9264C191.428 25.4018 190.237 26.1283 189.221 27.0642C188.204 28 187.382 29.1271 186.802 30.3807C186.222 31.6343 185.895 32.9899 185.84 34.37C185.826 34.5847 185.826 34.8001 185.84 35.0149C185.809 36.3964 186.052 37.7705 186.553 39.0584C187.054 40.3463 187.804 41.5229 188.761 42.5211C189.717 43.519 190.861 44.3193 192.127 44.8755C193.392 45.4316 194.756 45.7331 196.138 45.7629H196.783Z" fill="#F05D4E"/>
<path d="M217.002 24.3605C210.361 24.3605 205.709 28.8748 205.709 34.9743C205.709 41.0739 210.361 45.7222 217.002 45.7222C223.644 45.7222 228.295 41.2082 228.295 34.9743C228.295 28.7404 223.644 24.3605 217.002 24.3605ZM222.192 34.9743C222.256 35.6581 222.186 36.3479 221.984 37.0043C221.782 37.6608 221.452 38.2709 221.014 38.8C220.575 39.329 220.037 39.7666 219.43 40.0876C218.822 40.4086 218.157 40.6068 217.473 40.6708H217.002C216.343 40.6761 215.689 40.5513 215.077 40.3035C214.466 40.0557 213.909 39.6899 213.44 39.2269C212.97 38.7638 212.597 38.2128 212.341 37.6052C212.085 36.9977 211.951 36.3456 211.947 35.6864C211.941 35.579 211.941 35.4713 211.947 35.364V34.934C211.842 33.587 212.269 32.2523 213.135 31.2153C214.002 30.1784 215.24 29.5216 216.586 29.3853H216.989C218.374 29.3959 219.698 29.955 220.67 30.9397C221.643 31.9245 222.186 33.2546 222.178 34.6385V34.934L222.192 34.9743Z" fill="#F05D4E"/>
<path d="M51.4524 24.8037C51.4558 25.234 51.3738 25.6608 51.211 26.0593C51.0482 26.4577 50.808 26.8199 50.5043 27.1249C50.2005 27.4298 49.8389 27.6714 49.441 27.8357C49.0427 28 48.6163 28.0836 48.1853 28.0819C47.4484 28.0907 46.7308 27.8438 46.1554 27.3832L45.6579 26.8727L25.801 7.76791L5.75584 27.0742L5.60796 27.222C4.99737 27.7175 4.22892 27.9773 3.4427 27.9539C2.65648 27.9306 1.90483 27.6257 1.32474 27.0948C0.744653 26.564 0.374747 25.8425 0.28244 25.0619C0.190133 24.2813 0.381572 23.4935 0.821867 22.8422L1.48062 22.1435L21.0956 3.25368L23.502 0.956269C23.8032 0.653234 24.1614 0.412731 24.5559 0.248611C24.9505 0.0844927 25.3736 0 25.801 0C26.2283 0 26.6515 0.0844927 27.0461 0.248611C27.4406 0.412731 27.7988 0.653234 28.0999 0.956269L30.493 3.25368L50.1482 22.1838L50.7265 22.7212C51.1997 23.3075 51.4604 24.0369 51.4658 24.7902" fill="#F05D4E"/>
<path d="M26.0702 47.9121L37.78 42.1216V21.7403L44.7708 28.337L44.9591 46.2729L26.1374 56L26.0702 47.9121Z" fill="#111A41"/>
<path d="M25.519 47.9121L13.836 42.1216V21.7403L6.85855 28.337L6.6569 46.2729L25.4786 56L25.519 47.9121Z" fill="#111A41"/>
</svg>
