<svg width="175" height="48" viewBox="0 0 175 48" fill="none" xmlns="http://www.w3.org/2000/svg">
<path fill-rule="evenodd" clip-rule="evenodd" d="M28.7318 1.10712C27.6326 2.51213 27.6847 4.40869 28.8528 5.51234C29.3629 5.99451 34.9719 8.46794 41.3176 11.0087C47.6632 13.5494 52.9427 15.7164 53.0493 15.8241C53.1563 15.9317 50.4798 17.4522 47.1017 19.2031C43.7237 20.9541 39.6624 23.0906 38.0765 23.9508C36.2096 24.9633 34.6906 25.5147 33.7669 25.5147C32.9658 25.5147 26.3241 23.4553 18.6194 20.8183C11.0727 18.2353 4.32863 16.1219 3.63217 16.1219C2.27581 16.1219 1.35251 16.8823 0.780162 18.4709C0.261509 19.9096 0.757595 21.2876 2.07232 22.0597C3.7664 23.055 33.1137 32.9507 34.3712 32.9507C34.9762 32.9507 39.8328 30.6792 45.5913 27.7032C64.6468 17.8553 65.2483 17.4807 65.269 15.4589C65.2911 13.2391 63.7348 12.472 40.9343 3.46667C31.4651 -0.27323 30.0282 -0.551101 28.7318 1.10712ZM169.192 1.10712C167.456 3.32695 168.823 6.7291 171.451 6.7291C173.211 6.7291 175 5.02548 175 3.35004C175 0.353738 170.992 -1.19412 169.192 1.10712ZM169.808 1.57441C168.326 3.22128 169.459 5.94637 171.626 5.94637C173.816 5.94637 175.09 2.9442 173.51 1.50631C172.566 0.646481 170.61 0.682487 169.808 1.57441ZM170.331 3.40249C170.331 4.37112 170.506 5.16364 170.72 5.16364C170.934 5.16364 171.109 4.87207 171.109 4.51592C171.109 3.93396 171.189 3.94061 171.89 4.57893C172.739 5.35188 173.429 5.11041 172.743 4.27954C172.495 3.97936 172.458 3.54494 172.652 3.22911C173.192 2.34932 172.66 1.64134 171.457 1.64134C170.382 1.64134 170.331 1.72117 170.331 3.40249ZM171.109 2.81544C171.109 3.03069 171.284 3.2068 171.498 3.2068C171.712 3.2068 171.887 3.03069 171.887 2.81544C171.887 2.60018 171.712 2.42407 171.498 2.42407C171.284 2.42407 171.109 2.60018 171.109 2.81544ZM136.342 6.38157C134.505 6.88095 133.757 7.83471 133.757 9.67727C133.757 11.5734 134.123 11.9777 136.743 12.9781C138.902 13.8027 139.416 14.4347 139.067 15.8346C138.724 17.2103 137.05 17.5567 135.149 16.6448C133.928 16.0589 133.66 16.0382 133.37 16.509C132.909 17.2588 133.225 17.6674 134.765 18.3143C138.066 19.7021 141.149 17.9942 141.149 14.7772C141.149 13.4152 140.025 12.2846 137.85 11.4611C135.607 10.6119 134.912 9.80055 135.556 8.78378C136.017 8.05701 138.397 7.86915 139.687 8.45777C140.48 8.81978 141.107 7.70439 140.47 7.06372C139.842 6.43127 137.55 6.05282 136.342 6.38157ZM72.2811 10.876C72.2811 16.0495 72.7095 17.2455 74.9444 18.3124C76.9898 19.2885 79.1846 18.8411 80.7433 17.1301L82.0082 15.7419V11.04V6.33774H81.0355H80.0628V10.8385C80.0628 14.8175 79.9725 15.43 79.2846 16.1219C78.1668 17.2463 76.1019 17.2929 74.9074 16.2205C74.3316 15.7035 74.2265 14.8946 74.2265 10.9735V6.33774H73.2538H72.2811V10.876ZM84.7319 12.5996C84.7319 18.6004 84.7642 18.8615 85.51 18.8615C86.2454 18.8615 86.2882 18.6004 86.2882 14.1118V9.36183L89.6927 13.8915C93.0365 18.3406 93.7871 19.0834 94.494 18.6439C94.689 18.5229 94.8481 15.7047 94.8481 12.3808V6.33774H93.8882C92.9323 6.33774 92.9276 6.35613 92.8183 10.6557L92.7081 14.9736L89.4445 10.6557C84.8657 4.59811 84.7319 4.65329 84.7319 12.5996ZM97.5717 12.5996V18.8615H98.5444H99.5172V12.5996V6.33774H98.5444H97.5717V12.5996ZM103.111 12.1104C105.506 18.0854 106.1 19.1076 106.978 18.7687C107.376 18.6153 109.927 12.8023 112.302 6.63987C112.379 6.44067 111.971 6.335 111.396 6.40544C110.453 6.52089 110.175 6.98114 108.544 11.123C107.549 13.6473 106.624 15.5846 106.488 15.428C106.351 15.2715 105.471 13.1632 104.532 10.743C102.965 6.70445 102.741 6.34243 101.81 6.34008L100.797 6.33774L103.111 12.1104ZM113.913 12.5996V18.8615H117.61C121.293 18.8615 121.306 18.8579 121.306 17.8831C121.306 16.9266 121.241 16.9046 118.388 16.9046H115.47V15.1435V13.3823H117.763C119.371 13.3823 120.118 13.2184 120.265 12.8336C120.59 11.9809 120.183 11.8169 117.739 11.8169H115.47V9.86004V7.9032H118.388C121.047 7.9032 121.306 7.83354 121.306 7.12047C121.306 6.39253 121.047 6.33774 117.61 6.33774H113.913V12.5996ZM123.626 8.09889C123.537 18.9746 123.512 18.6658 124.483 18.6658C125.328 18.6658 125.384 18.5159 125.383 16.2197C125.382 13.9514 125.445 13.7737 126.249 13.7737C126.866 13.7737 127.592 14.4531 128.772 16.1364C130.272 18.2764 131.829 19.3659 132.468 18.7233C132.595 18.5953 132.006 17.5617 131.16 16.426C128.887 13.3741 128.911 13.481 130.23 12.3652C131.425 11.3535 131.791 9.71719 131.181 8.1165C130.76 7.01519 128.86 6.33774 126.189 6.33774H123.641L123.626 8.09889ZM143.182 12.5018C143.287 18.5589 143.305 18.6681 144.165 18.791L145.04 18.9159V12.627V6.33774H144.058H143.075L143.182 12.5018ZM146.597 7.12047C146.597 7.79832 146.856 7.9032 148.531 7.9032H150.466L150.574 13.2845C150.679 18.5292 150.704 18.6689 151.558 18.791C152.43 18.9155 152.433 18.8959 152.433 13.4097V7.9032H154.35C155.772 7.9032 156.299 7.74587 156.393 7.29345C156.464 6.94749 157.389 8.11376 158.535 9.99349C160.37 13.0066 160.562 13.5428 160.675 15.9845C160.787 18.4228 160.878 18.6771 161.674 18.791C162.502 18.9092 162.549 18.7832 162.552 16.4428C162.554 14.1342 162.696 13.7354 164.692 10.4557C165.867 8.52313 166.829 6.80581 166.829 6.63987C166.829 6.47354 166.435 6.3393 165.954 6.34126C165.279 6.344 164.721 6.97253 163.522 9.0773C162.666 10.5802 161.878 11.8098 161.771 11.8098C161.664 11.8098 160.876 10.5802 160.02 9.0773L158.464 6.34478L152.53 6.34126C146.855 6.33774 146.597 6.37179 146.597 7.12047ZM125.197 10.0557C125.197 12.1758 125.214 12.2082 126.339 12.2082C129.075 12.2082 130.443 10.6083 129.26 8.79239C128.8 8.08675 128.321 7.9032 126.939 7.9032H125.197V10.0557ZM154.732 20.6438C152.422 21.3596 149.653 23.8283 148.511 26.1918C147.784 27.6966 147.609 28.7036 147.609 31.3852C147.609 35.4425 148.528 37.6619 151.181 40.0109C154.488 42.9391 160.551 43.6154 164.745 41.5243L166.635 40.5823L166.745 36.1794L166.855 31.7766H163.34H159.826V32.9507C159.826 34.0986 159.869 34.1248 161.771 34.1248H163.716V36.606V39.0873L162.203 39.5894C161.327 39.8806 159.626 40.0238 158.163 39.9303C153.378 39.6239 150.877 36.7775 150.877 31.6404C150.877 27.0896 152.626 24.37 156.23 23.316C158.584 22.6276 160.763 22.8456 163.02 23.9962C164.89 24.9492 165.532 24.9241 166.09 23.8764C166.483 23.1368 166.405 22.9004 165.513 22.1286C163.302 20.2152 158.326 19.5299 154.732 20.6438ZM72.3721 31.483L72.4756 42.5392H78.5065H84.5373L84.6579 41.0715L84.7789 39.6039H80.0862H75.3938V30.0154V20.4269H73.8312H72.269L72.3721 31.483ZM87.9356 31.483L88.0391 42.5392H89.4009H90.7627L90.8662 31.483L90.9693 20.4269H89.4009H87.8325L87.9356 31.483ZM94.0466 21.3075C94.4061 22.2225 95.3014 24.4353 99.7055 35.2989C101.145 38.8505 102.497 41.9713 102.709 42.2335C103.046 42.6507 105.156 42.6973 105.517 42.2949C105.692 42.1004 114.302 20.8054 114.302 20.5667C114.302 20.4649 113.558 20.4359 112.649 20.5025L110.995 20.6226L107.523 29.3376L104.05 38.0525L100.542 29.2397L97.0352 20.4269H95.3675C93.7952 20.4269 93.7198 20.477 94.0466 21.3075ZM117.117 31.483L117.221 42.5392L118.68 42.6605L120.139 42.7822V31.6044V20.4269H118.576H117.014L117.117 31.483ZM125.677 31.4635L125.781 42.5004H126.948L128.115 42.5008L128.31 34.2105L128.504 25.9206L134.73 34.0962C140.631 41.8464 141.998 43.2213 143.113 42.5282C143.334 42.3904 143.484 37.8788 143.484 31.3621V20.4269H142.13H140.776L140.671 28.6679L140.566 36.909L134.34 28.6852C128.504 20.9748 128.036 20.4602 126.844 20.4442L125.574 20.4269L125.677 31.4635ZM60.6085 27.4484C59.542 27.7788 53.7302 30.7258 48.5468 33.5647C33.7946 41.6449 35.1529 41.3917 25.7809 37.8068C5.34454 29.9896 4.70488 29.7677 2.96722 29.8929C1.46457 30.0017 1.18598 30.1782 0.506634 31.4545C-0.466861 33.2833 -0.0365309 34.7474 1.78984 35.8202C2.91547 36.4816 14.3056 40.9905 18.8225 42.5626C19.7007 42.8683 21.1014 43.4158 21.9352 43.7786C22.7686 44.1418 23.6258 44.4784 23.8398 44.5269C24.0538 44.5754 26.3801 45.4298 29.0096 46.4258C33.4662 48.1134 33.9008 48.2065 35.4178 47.7956C37.2862 47.2896 42.2459 44.8639 49.5195 40.8985C52.3015 39.382 56.7164 37.0553 59.3311 35.7286C61.9454 34.4019 64.3527 32.9307 64.681 32.4591C65.625 31.1034 65.4219 29.5137 64.1402 28.2241C62.9804 27.0575 62.3317 26.915 60.6085 27.4484Z" fill="#565656"/>
</svg>
